<mxfile host="app.diagrams.net" modified="2023-04-23T17:25:46.452Z" agent="Mozilla/5.0 (Macintosh; Intel Mac OS X 10_15_7) AppleWebKit/537.36 (KHTML, like Gecko) Chrome/110.0.0.0 YaBrowser/23.3.0.2317 Yowser/2.5 Safari/537.36" version="21.2.1" etag="HHJ9Wa6nK0ufGDswZcds" type="github">
  <diagram name="Страница 1" id="udpgcJnddGjD-RtqOclj">
    <mxGraphModel>
      <root>
        <mxCell id="0" />
        <mxCell id="1" parent="0" />
      </root>
    </mxGraphModel>
  </diagram>
</mxfile>
